<svg width="90" height="91" viewBox="0 0 90 91" fill="none" xmlns="http://www.w3.org/2000/svg">
<rect x="1.5" y="2.30078" width="87" height="87" rx="43.5" fill="#FF88C3" fill-opacity="0.5"/>
<rect x="1.5" y="2.30078" width="87" height="87" rx="43.5" stroke="#FF88C3" stroke-width="3"/>
<path d="M33.888 56.0248C32.48 56.0248 31.2213 55.7474 30.112 55.1928C29.0027 54.6168 28.064 53.8168 27.296 52.7928C26.528 51.7474 25.9413 50.4994 25.536 49.0488C25.152 47.5981 24.96 45.9768 24.96 44.1848C24.96 42.2861 25.1733 40.6114 25.6 39.1608C26.0267 37.7101 26.6347 36.4834 27.424 35.4808C28.2347 34.4781 29.1947 33.7208 30.304 33.2088C31.4133 32.6968 32.64 32.4408 33.984 32.4408C35.392 32.4408 36.64 32.7181 37.728 33.2728C38.8373 33.8061 39.776 34.5954 40.544 35.6408C41.312 36.6861 41.888 37.9341 42.272 39.3848C42.6773 40.8141 42.88 42.4248 42.88 44.2168C42.88 46.1154 42.656 47.8008 42.208 49.2728C41.7813 50.7234 41.1733 51.9608 40.384 52.9848C39.5947 53.9874 38.656 54.7448 37.568 55.2568C36.48 55.7688 35.2533 56.0248 33.888 56.0248ZM33.92 51.4808C34.432 51.4808 34.9013 51.3741 35.328 51.1608C35.7547 50.9474 36.128 50.5848 36.448 50.0728C36.7893 49.5394 37.0453 48.8034 37.216 47.8648C37.3867 46.9048 37.472 45.6781 37.472 44.1848C37.472 42.7128 37.3867 41.5074 37.216 40.5688C37.0453 39.6088 36.7893 38.8728 36.448 38.3608C36.128 37.8488 35.7547 37.4861 35.328 37.2728C34.9013 37.0594 34.432 36.9528 33.92 36.9528C33.408 36.9528 32.9387 37.0594 32.512 37.2728C32.0853 37.4861 31.7013 37.8488 31.36 38.3608C31.04 38.8728 30.784 39.6088 30.592 40.5688C30.4213 41.5074 30.336 42.7128 30.336 44.1848C30.336 45.6781 30.4213 46.9048 30.592 47.8648C30.784 48.8034 31.04 49.5394 31.36 50.0728C31.7013 50.5848 32.0853 50.9474 32.512 51.1608C32.9387 51.3741 33.408 51.4808 33.92 51.4808ZM55.4605 55.8008L55.4285 50.7448H44.8685V46.7128L54.2445 32.7288H60.8685V46.3288H63.7805L63.7485 50.7448H60.8685V55.8008H55.4605ZM50.2125 46.3288H55.4605V38.5848L50.2125 46.3288Z" fill="#FF88C3"/>
</svg>
