<svg width="90" height="91" viewBox="0 0 90 91" fill="none" xmlns="http://www.w3.org/2000/svg">
<rect x="1.5" y="2.30078" width="87" height="87" rx="43.5" fill="#FF88C3" fill-opacity="0.5"/>
<rect x="1.5" y="2.30078" width="87" height="87" rx="43.5" stroke="#FF88C3" stroke-width="3"/>
<path d="M37.388 56.0248C35.98 56.0248 34.7213 55.7474 33.612 55.1928C32.5027 54.6168 31.564 53.8168 30.796 52.7928C30.028 51.7474 29.4413 50.4994 29.036 49.0488C28.652 47.5981 28.46 45.9768 28.46 44.1848C28.46 42.2861 28.6733 40.6114 29.1 39.1608C29.5267 37.7101 30.1347 36.4834 30.924 35.4808C31.7347 34.4781 32.6947 33.7208 33.804 33.2088C34.9133 32.6968 36.14 32.4408 37.484 32.4408C38.892 32.4408 40.14 32.7181 41.228 33.2728C42.3373 33.8061 43.276 34.5954 44.044 35.6408C44.812 36.6861 45.388 37.9341 45.772 39.3848C46.1773 40.8141 46.38 42.4248 46.38 44.2168C46.38 46.1154 46.156 47.8008 45.708 49.2728C45.2813 50.7234 44.6733 51.9608 43.884 52.9848C43.0947 53.9874 42.156 54.7448 41.068 55.2568C39.98 55.7688 38.7533 56.0248 37.388 56.0248ZM37.42 51.4808C37.932 51.4808 38.4013 51.3741 38.828 51.1608C39.2547 50.9474 39.628 50.5848 39.948 50.0728C40.2893 49.5394 40.5453 48.8034 40.716 47.8648C40.8867 46.9048 40.972 45.6781 40.972 44.1848C40.972 42.7128 40.8867 41.5074 40.716 40.5688C40.5453 39.6088 40.2893 38.8728 39.948 38.3608C39.628 37.8488 39.2547 37.4861 38.828 37.2728C38.4013 37.0594 37.932 36.9528 37.42 36.9528C36.908 36.9528 36.4387 37.0594 36.012 37.2728C35.5853 37.4861 35.2013 37.8488 34.86 38.3608C34.54 38.8728 34.284 39.6088 34.092 40.5688C33.9213 41.5074 33.836 42.7128 33.836 44.1848C33.836 45.6781 33.9213 46.9048 34.092 47.8648C34.284 48.8034 34.54 49.5394 34.86 50.0728C35.2013 50.5848 35.5853 50.9474 36.012 51.1608C36.4387 51.3741 36.908 51.4808 37.42 51.4808ZM53.8405 55.8008V40.9208H47.9205V36.8248H48.9125C50.4058 36.8248 51.6218 36.4514 52.5605 35.7048C53.4992 34.9368 54.0325 33.9448 54.1605 32.7288H59.2485V55.8008H53.8405Z" fill="#FF88C3"/>
</svg>
