<svg width="90" height="91" viewBox="0 0 90 91" fill="none" xmlns="http://www.w3.org/2000/svg">
<rect x="1.5" y="2.30078" width="87" height="87" rx="43.5" fill="#FF88C3" fill-opacity="0.5"/>
<rect x="1.5" y="2.30078" width="87" height="87" rx="43.5" stroke="#FF88C3" stroke-width="3"/>
<path d="M34.888 56.0248C33.48 56.0248 32.2213 55.7474 31.112 55.1928C30.0027 54.6168 29.064 53.8168 28.296 52.7928C27.528 51.7474 26.9413 50.4994 26.536 49.0488C26.152 47.5981 25.96 45.9768 25.96 44.1848C25.96 42.2861 26.1733 40.6114 26.6 39.1608C27.0267 37.7101 27.6347 36.4834 28.424 35.4808C29.2347 34.4781 30.1947 33.7208 31.304 33.2088C32.4133 32.6968 33.64 32.4408 34.984 32.4408C36.392 32.4408 37.64 32.7181 38.728 33.2728C39.8373 33.8061 40.776 34.5954 41.544 35.6408C42.312 36.6861 42.888 37.9341 43.272 39.3848C43.6773 40.8141 43.88 42.4248 43.88 44.2168C43.88 46.1154 43.656 47.8008 43.208 49.2728C42.7813 50.7234 42.1733 51.9608 41.384 52.9848C40.5947 53.9874 39.656 54.7448 38.568 55.2568C37.48 55.7688 36.2533 56.0248 34.888 56.0248ZM34.92 51.4808C35.432 51.4808 35.9013 51.3741 36.328 51.1608C36.7547 50.9474 37.128 50.5848 37.448 50.0728C37.7893 49.5394 38.0453 48.8034 38.216 47.8648C38.3867 46.9048 38.472 45.6781 38.472 44.1848C38.472 42.7128 38.3867 41.5074 38.216 40.5688C38.0453 39.6088 37.7893 38.8728 37.448 38.3608C37.128 37.8488 36.7547 37.4861 36.328 37.2728C35.9013 37.0594 35.432 36.9528 34.92 36.9528C34.408 36.9528 33.9387 37.0594 33.512 37.2728C33.0853 37.4861 32.7013 37.8488 32.36 38.3608C32.04 38.8728 31.784 39.6088 31.592 40.5688C31.4213 41.5074 31.336 42.7128 31.336 44.1848C31.336 45.6781 31.4213 46.9048 31.592 47.8648C31.784 48.8034 32.04 49.5394 32.36 50.0728C32.7013 50.5848 33.0853 50.9474 33.512 51.1608C33.9387 51.3741 34.408 51.4808 34.92 51.4808ZM46.0285 55.8008V55.0968C46.0285 53.6674 46.2205 52.4301 46.6045 51.3848C47.0098 50.3181 47.5325 49.3794 48.1725 48.5688C48.8338 47.7581 49.5592 47.0328 50.3485 46.3928C51.1378 45.7528 51.9165 45.1768 52.6845 44.6648C53.4738 44.1314 54.1885 43.6194 54.8285 43.1288C55.4898 42.6168 56.0125 42.0941 56.3965 41.5608C56.8018 41.0061 57.0045 40.3981 57.0045 39.7368C57.0045 39.1608 56.8872 38.6808 56.6525 38.2968C56.4392 37.8914 56.1192 37.5928 55.6925 37.4008C55.2872 37.1874 54.7965 37.0808 54.2205 37.0808C53.6445 37.0808 53.1325 37.2088 52.6845 37.4648C52.2578 37.6994 51.9272 38.0728 51.6925 38.5848C51.4792 39.0754 51.4045 39.6941 51.4685 40.4408H46.1245C46.0818 38.7981 46.4018 37.3901 47.0845 36.2168C47.7885 35.0221 48.7805 34.0941 50.0605 33.4328C51.3405 32.7714 52.8338 32.4408 54.5405 32.4408C56.1618 32.4408 57.5698 32.7181 58.7645 33.2728C59.9805 33.8274 60.9192 34.6274 61.5805 35.6728C62.2632 36.7181 62.6045 37.9768 62.6045 39.4488C62.6045 40.4088 62.4658 41.2728 62.1885 42.0408C61.9325 42.8088 61.5592 43.5021 61.0685 44.1208C60.5992 44.7181 60.0658 45.2728 59.4685 45.7848C58.8712 46.2968 58.2525 46.7768 57.6125 47.2248C56.9938 47.6514 56.3858 48.0781 55.7885 48.5048C55.1912 48.9101 54.6472 49.3261 54.1565 49.7528C53.6658 50.1581 53.2712 50.5954 52.9725 51.0648H62.7965V55.8008H46.0285Z" fill="#FF88C3"/>
</svg>
