<svg width="90" height="91" viewBox="0 0 90 91" fill="none" xmlns="http://www.w3.org/2000/svg">
<rect x="1.5" y="2.30078" width="87" height="87" rx="43.5" fill="#FF88C3" fill-opacity="0.5"/>
<rect x="1.5" y="2.30078" width="87" height="87" rx="43.5" stroke="#FF88C3" stroke-width="3"/>
<path d="M34.888 56.0248C33.48 56.0248 32.2213 55.7474 31.112 55.1928C30.0027 54.6168 29.064 53.8168 28.296 52.7928C27.528 51.7474 26.9413 50.4994 26.536 49.0488C26.152 47.5981 25.96 45.9768 25.96 44.1848C25.96 42.2861 26.1733 40.6114 26.6 39.1608C27.0267 37.7101 27.6347 36.4834 28.424 35.4808C29.2347 34.4781 30.1947 33.7208 31.304 33.2088C32.4133 32.6968 33.64 32.4408 34.984 32.4408C36.392 32.4408 37.64 32.7181 38.728 33.2728C39.8373 33.8061 40.776 34.5954 41.544 35.6408C42.312 36.6861 42.888 37.9341 43.272 39.3848C43.6773 40.8141 43.88 42.4248 43.88 44.2168C43.88 46.1154 43.656 47.8008 43.208 49.2728C42.7813 50.7234 42.1733 51.9608 41.384 52.9848C40.5947 53.9874 39.656 54.7448 38.568 55.2568C37.48 55.7688 36.2533 56.0248 34.888 56.0248ZM34.92 51.4808C35.432 51.4808 35.9013 51.3741 36.328 51.1608C36.7547 50.9474 37.128 50.5848 37.448 50.0728C37.7893 49.5394 38.0453 48.8034 38.216 47.8648C38.3867 46.9048 38.472 45.6781 38.472 44.1848C38.472 42.7128 38.3867 41.5074 38.216 40.5688C38.0453 39.6088 37.7893 38.8728 37.448 38.3608C37.128 37.8488 36.7547 37.4861 36.328 37.2728C35.9013 37.0594 35.432 36.9528 34.92 36.9528C34.408 36.9528 33.9387 37.0594 33.512 37.2728C33.0853 37.4861 32.7013 37.8488 32.36 38.3608C32.04 38.8728 31.784 39.6088 31.592 40.5688C31.4213 41.5074 31.336 42.7128 31.336 44.1848C31.336 45.6781 31.4213 46.9048 31.592 47.8648C31.784 48.8034 32.04 49.5394 32.36 50.0728C32.7013 50.5848 33.0853 50.9474 33.512 51.1608C33.9387 51.3741 34.408 51.4808 34.92 51.4808ZM54.4765 56.1208C52.6845 56.1208 51.1485 55.8114 49.8685 55.1928C48.5885 54.5528 47.5965 53.6674 46.8925 52.5368C46.2098 51.4061 45.8472 50.1048 45.8045 48.6328H51.1805C51.1805 49.2088 51.3085 49.7208 51.5645 50.1688C51.8418 50.5954 52.2365 50.9261 52.7485 51.1608C53.2605 51.3954 53.8472 51.5128 54.5085 51.5128C55.1698 51.5128 55.7458 51.3954 56.2365 51.1608C56.7272 50.9261 57.1005 50.5954 57.3565 50.1688C57.6338 49.7208 57.7725 49.2088 57.7725 48.6328C57.7725 48.2061 57.6978 47.8434 57.5485 47.5448C57.4205 47.2248 57.2285 46.9581 56.9725 46.7448C56.7378 46.5314 56.4498 46.3714 56.1085 46.2648C55.7672 46.1368 55.3938 46.0728 54.9885 46.0728H51.9805V42.0408H54.5405C55.1805 42.0408 55.7138 41.9341 56.1405 41.7208C56.5672 41.5074 56.8872 41.2088 57.1005 40.8248C57.3352 40.4408 57.4525 40.0034 57.4525 39.5128C57.4525 38.9794 57.3245 38.5314 57.0685 38.1688C56.8338 37.8061 56.5032 37.5288 56.0765 37.3368C55.6498 37.1448 55.1378 37.0488 54.5405 37.0488C53.9218 37.0488 53.3778 37.1661 52.9085 37.4008C52.4392 37.6141 52.0765 37.9234 51.8205 38.3288C51.5645 38.7341 51.4152 39.2248 51.3725 39.8008H45.9645C46.0072 38.3074 46.3912 37.0168 47.1165 35.9288C47.8632 34.8194 48.8872 33.9661 50.1885 33.3688C51.5112 32.7501 53.0365 32.4408 54.7645 32.4408C56.0018 32.4408 57.1218 32.5901 58.1245 32.8888C59.1272 33.1874 59.9805 33.6141 60.6845 34.1688C61.4098 34.7021 61.9645 35.3528 62.3485 36.1208C62.7538 36.8888 62.9565 37.7634 62.9565 38.7448C62.9565 39.5341 62.8178 40.2701 62.5405 40.9528C62.2845 41.6141 61.9112 42.1901 61.4205 42.6808C60.9512 43.1501 60.4072 43.5128 59.7885 43.7688V43.9608C60.5352 44.1741 61.1645 44.5368 61.6765 45.0488C62.2098 45.5394 62.6045 46.1368 62.8605 46.8408C63.1378 47.5234 63.2765 48.2914 63.2765 49.1448C63.2765 50.5314 62.9032 51.7474 62.1565 52.7928C61.4312 53.8381 60.4072 54.6594 59.0845 55.2568C57.7618 55.8328 56.2258 56.1208 54.4765 56.1208Z" fill="#FF88C3"/>
</svg>
