<svg width="91" height="90" viewBox="0 0 91 90" fill="none" xmlns="http://www.w3.org/2000/svg">
<rect x="2" y="1.5" width="87" height="87" rx="43.5" fill="#FF6600" fill-opacity="0.5"/>
<rect x="2" y="1.5" width="87" height="87" rx="43.5" stroke="#FF6600" stroke-width="3"/>
<path d="M37.888 55.224C36.48 55.224 35.2213 54.9467 34.112 54.392C33.0027 53.816 32.064 53.016 31.296 51.992C30.528 50.9467 29.9413 49.6987 29.536 48.248C29.152 46.7973 28.96 45.176 28.96 43.384C28.96 41.4853 29.1733 39.8107 29.6 38.36C30.0267 36.9093 30.6347 35.6827 31.424 34.68C32.2347 33.6773 33.1947 32.92 34.304 32.408C35.4133 31.896 36.64 31.64 37.984 31.64C39.392 31.64 40.64 31.9173 41.728 32.472C42.8373 33.0053 43.776 33.7947 44.544 34.84C45.312 35.8853 45.888 37.1333 46.272 38.584C46.6773 40.0133 46.88 41.624 46.88 43.416C46.88 45.3147 46.656 47 46.208 48.472C45.7813 49.9227 45.1733 51.16 44.384 52.184C43.5947 53.1867 42.656 53.944 41.568 54.456C40.48 54.968 39.2533 55.224 37.888 55.224ZM37.92 50.68C38.432 50.68 38.9013 50.5733 39.328 50.36C39.7547 50.1467 40.128 49.784 40.448 49.272C40.7893 48.7387 41.0453 48.0027 41.216 47.064C41.3867 46.104 41.472 44.8773 41.472 43.384C41.472 41.912 41.3867 40.7067 41.216 39.768C41.0453 38.808 40.7893 38.072 40.448 37.56C40.128 37.048 39.7547 36.6853 39.328 36.472C38.9013 36.2587 38.432 36.152 37.92 36.152C37.408 36.152 36.9387 36.2587 36.512 36.472C36.0853 36.6853 35.7013 37.048 35.36 37.56C35.04 38.072 34.784 38.808 34.592 39.768C34.4213 40.7067 34.336 41.912 34.336 43.384C34.336 44.8773 34.4213 46.104 34.592 47.064C34.784 48.0027 35.04 48.7387 35.36 49.272C35.7013 49.784 36.0853 50.1467 36.512 50.36C36.9387 50.5733 37.408 50.68 37.92 50.68ZM54.3405 55V40.12H48.4205V36.024H49.4125C50.9058 36.024 52.1218 35.6507 53.0605 34.904C53.9992 34.136 54.5325 33.144 54.6605 31.928H59.7485V55H54.3405Z" fill="#FF6600"/>
</svg>
