<svg width="91" height="90" viewBox="0 0 91 90" fill="none" xmlns="http://www.w3.org/2000/svg">
<rect x="2" y="1.5" width="87" height="87" rx="43.5" fill="#FF6600" fill-opacity="0.5"/>
<rect x="2" y="1.5" width="87" height="87" rx="43.5" stroke="#FF6600" stroke-width="3"/>
<path d="M35.388 55.224C33.98 55.224 32.7213 54.9467 31.612 54.392C30.5027 53.816 29.564 53.016 28.796 51.992C28.028 50.9467 27.4413 49.6987 27.036 48.248C26.652 46.7973 26.46 45.176 26.46 43.384C26.46 41.4853 26.6733 39.8107 27.1 38.36C27.5267 36.9093 28.1347 35.6827 28.924 34.68C29.7347 33.6773 30.6947 32.92 31.804 32.408C32.9133 31.896 34.14 31.64 35.484 31.64C36.892 31.64 38.14 31.9173 39.228 32.472C40.3373 33.0053 41.276 33.7947 42.044 34.84C42.812 35.8853 43.388 37.1333 43.772 38.584C44.1773 40.0133 44.38 41.624 44.38 43.416C44.38 45.3147 44.156 47 43.708 48.472C43.2813 49.9227 42.6733 51.16 41.884 52.184C41.0947 53.1867 40.156 53.944 39.068 54.456C37.98 54.968 36.7533 55.224 35.388 55.224ZM35.42 50.68C35.932 50.68 36.4013 50.5733 36.828 50.36C37.2547 50.1467 37.628 49.784 37.948 49.272C38.2893 48.7387 38.5453 48.0027 38.716 47.064C38.8867 46.104 38.972 44.8773 38.972 43.384C38.972 41.912 38.8867 40.7067 38.716 39.768C38.5453 38.808 38.2893 38.072 37.948 37.56C37.628 37.048 37.2547 36.6853 36.828 36.472C36.4013 36.2587 35.932 36.152 35.42 36.152C34.908 36.152 34.4387 36.2587 34.012 36.472C33.5853 36.6853 33.2013 37.048 32.86 37.56C32.54 38.072 32.284 38.808 32.092 39.768C31.9213 40.7067 31.836 41.912 31.836 43.384C31.836 44.8773 31.9213 46.104 32.092 47.064C32.284 48.0027 32.54 48.7387 32.86 49.272C33.2013 49.784 33.5853 50.1467 34.012 50.36C34.4387 50.5733 34.908 50.68 35.42 50.68ZM46.5285 55V54.296C46.5285 52.8667 46.7205 51.6293 47.1045 50.584C47.5098 49.5173 48.0325 48.5787 48.6725 47.768C49.3338 46.9573 50.0592 46.232 50.8485 45.592C51.6378 44.952 52.4165 44.376 53.1845 43.864C53.9738 43.3307 54.6885 42.8187 55.3285 42.328C55.9898 41.816 56.5125 41.2933 56.8965 40.76C57.3018 40.2053 57.5045 39.5973 57.5045 38.936C57.5045 38.36 57.3872 37.88 57.1525 37.496C56.9392 37.0907 56.6192 36.792 56.1925 36.6C55.7872 36.3867 55.2965 36.28 54.7205 36.28C54.1445 36.28 53.6325 36.408 53.1845 36.664C52.7578 36.8987 52.4272 37.272 52.1925 37.784C51.9792 38.2747 51.9045 38.8933 51.9685 39.64H46.6245C46.5818 37.9973 46.9018 36.5893 47.5845 35.416C48.2885 34.2213 49.2805 33.2933 50.5605 32.632C51.8405 31.9707 53.3338 31.64 55.0405 31.64C56.6618 31.64 58.0698 31.9173 59.2645 32.472C60.4805 33.0267 61.4192 33.8267 62.0805 34.872C62.7632 35.9173 63.1045 37.176 63.1045 38.648C63.1045 39.608 62.9658 40.472 62.6885 41.24C62.4325 42.008 62.0592 42.7013 61.5685 43.32C61.0992 43.9173 60.5658 44.472 59.9685 44.984C59.3712 45.496 58.7525 45.976 58.1125 46.424C57.4938 46.8507 56.8858 47.2773 56.2885 47.704C55.6912 48.1093 55.1472 48.5253 54.6565 48.952C54.1658 49.3573 53.7712 49.7947 53.4725 50.264H63.2965V55H46.5285Z" fill="#FF6600"/>
</svg>
